Highland Sans Bold Italic.ufo
<glyph name="ampersand" format="1">
  <advance width="1228"/>
  <unicode hex="0026"/>
  <outline>
    <contour>
      <point x="470" y="1209"/>
      <point x="312" y="1048"/>
      <point x="312" y="828" type="curve" smooth="yes"/>
      <point x="312" y="715"/>
      <point x="363" y="618"/>
      <point x="428" y="535" type="curve" smooth="yes"/>
      <point x="846" y="1" type="line" smooth="yes"/>
      <point x="874" y="-34"/>
      <point x="910" y="-32"/>
      <point x="988" y="20" type="curve" smooth="yes"/>
      <point x="1072" y="76"/>
      <point x="1073" y="108"/>
      <point x="1045" y="143" type="curve" smooth="yes"/>
      <point x="635" y="666" type="line" smooth="yes"/>
      <point x="590" y="723"/>
      <point x="564" y="776"/>
      <point x="564" y="834" type="curve" smooth="yes"/>
      <point x="564" y="928"/>
      <point x="637" y="982"/>
      <point x="721" y="982" type="curve" smooth="yes"/>
      <point x="788" y="982"/>
      <point x="853" y="963"/>
      <point x="909" y="932" type="curve" smooth="yes"/>
      <point x="936" y="917"/>
      <point x="976" y="926"/>
      <point x="1012" y="1002" type="curve" smooth="yes"/>
      <point x="1050" y="1082"/>
      <point x="1030" y="1118"/>
      <point x="995" y="1139" type="curve" smooth="yes"/>
      <point x="925" y="1183"/>
      <point x="830" y="1209"/>
      <point x="723" y="1209" type="curve" smooth="yes"/>
    </contour>
    <contour>
      <point x="236" y="606"/>
      <point x="114" y="463"/>
      <point x="114" y="274" type="curve" smooth="yes"/>
      <point x="114" y="99"/>
      <point x="233" y="-22"/>
      <point x="438" y="-22" type="curve" smooth="yes"/>
      <point x="731" y="-22"/>
      <point x="911" y="194"/>
      <point x="1099" y="561" type="curve" smooth="yes"/>
      <point x="1121" y="603"/>
      <point x="1106" y="632"/>
      <point x="1020" y="660" type="curve" smooth="yes"/>
      <point x="931" y="688"/>
      <point x="890" y="677"/>
      <point x="868" y="634" type="curve" smooth="yes"/>
      <point x="738" y="382"/>
      <point x="616" y="205"/>
      <point x="476" y="205" type="curve" smooth="yes"/>
      <point x="404" y="205"/>
      <point x="365" y="244"/>
      <point x="365" y="307" type="curve" smooth="yes"/>
      <point x="365" y="408"/>
      <point x="440" y="470"/>
      <point x="564" y="524" type="curve"/>
      <point x="463" y="701" type="line"/>
    </contour>
  </outline>
</glyph>
<glyph name="zero" format="1">
  <advance width="1228"/>
  <unicode hex="0030"/>
  <outline>
    <contour>
      <point x="330" y="1209"/>
      <point x="158" y="781"/>
      <point x="158" y="447" type="curve" smooth="yes"/>
      <point x="158" y="169"/>
      <point x="300" y="-22"/>
      <point x="555" y="-22" type="curve" smooth="yes"/>
      <point x="967" y="-22"/>
      <point x="1139" y="406"/>
      <point x="1139" y="740" type="curve" smooth="yes"/>
      <point x="1139" y="1018"/>
      <point x="997" y="1209"/>
      <point x="742" y="1209" type="curve" smooth="yes"/>
    </contour>
    <contour>
      <point x="822" y="972"/>
      <point x="881" y="896"/>
      <point x="881" y="748" type="curve" smooth="yes"/>
      <point x="881" y="534"/>
      <point x="791" y="215"/>
      <point x="580" y="215" type="curve" smooth="yes"/>
      <point x="475" y="215"/>
      <point x="416" y="291"/>
      <point x="416" y="439" type="curve" smooth="yes"/>
      <point x="416" y="653"/>
      <point x="506" y="972"/>
      <point x="717" y="972" type="curve" smooth="yes"/>
    </contour>
  </outline>
</glyph>
<glyph name="one" format="1">
  <advance width="1228"/>
  <unicode hex="0031"/>
  <outline>
    <contour>
      <point x="308" y="950" type="line" smooth="yes"/>
      <point x="263" y="927"/>
      <point x="253" y="891"/>
      <point x="284" y="818" type="curve" smooth="yes"/>
      <point x="316" y="743"/>
      <point x="348" y="725"/>
      <point x="392" y="748" type="curve" smooth="yes"/>
      <point x="662" y="888" type="line"/>
      <point x="610" y="913" type="line"/>
      <point x="478" y="165" type="line"/>
      <point x="728" y="165" type="line"/>
      <point x="901" y="1148" type="line" smooth="yes"/>
      <point x="913" y="1214"/>
      <point x="848" y="1227"/>
      <point x="788" y="1196" type="curve" smooth="yes"/>
    </contour>
    <contour>
      <point x="263" y="225" type="line" smooth="yes"/>
      <point x="218" y="225"/>
      <point x="194" y="205"/>
      <point x="179" y="112" type="curve" smooth="yes"/>
      <point x="164" y="19"/>
      <point x="178" y="0"/>
      <point x="223" y="0" type="curve" smooth="yes"/>
      <point x="955" y="0" type="line" smooth="yes"/>
      <point x="1000" y="0"/>
      <point x="1022" y="19"/>
      <point x="1037" y="112" type="curve" smooth="yes"/>
      <point x="1052" y="205"/>
      <point x="1040" y="225"/>
      <point x="995" y="225" type="curve" smooth="yes"/>
    </contour>
  </outline>
</glyph>
<glyph name="four" format="1">
  <advance width="1228"/>
  <unicode hex="0034"/>
  <outline>
    <contour>
      <point x="816" y="1209"/>
      <point x="765" y="1186"/>
      <point x="725" y="1140" type="curve" smooth="yes"/>
      <point x="150" y="476" type="line" smooth="yes"/>
      <point x="135" y="459"/>
      <point x="125" y="428"/>
      <point x="116" y="377" type="curve" smooth="yes"/>
      <point x="99" y="282"/>
      <point x="113" y="260"/>
      <point x="158" y="260" type="curve" smooth="yes"/>
      <point x="608" y="260" type="line"/>
      <point x="574" y="63" type="line" smooth="yes"/>
      <point x="566" y="18"/>
      <point x="581" y="0"/>
      <point x="626" y="0" type="curve" smooth="yes"/>
      <point x="750" y="0" type="line" smooth="yes"/>
      <point x="795" y="0"/>
      <point x="816" y="18"/>
      <point x="824" y="63" type="curve" smooth="yes"/>
      <point x="858" y="260" type="line"/>
      <point x="1010" y="260" type="line" smooth="yes"/>
      <point x="1055" y="260"/>
      <point x="1077" y="282"/>
      <point x="1094" y="377" type="curve" smooth="yes"/>
      <point x="1111" y="472"/>
      <point x="1097" y="495"/>
      <point x="1052" y="495" type="curve" smooth="yes"/>
      <point x="900" y="495" type="line"/>
      <point x="1010" y="1119" type="line" smooth="yes"/>
      <point x="1020" y="1173"/>
      <point x="988" y="1209"/>
      <point x="892" y="1209" type="curve" smooth="yes"/>
    </contour>
    <contour>
      <point x="658" y="495" type="line"/>
      <point x="435" y="495" type="line"/>
      <point x="739" y="856" type="line"/>
    </contour>
  </outline>
</glyph>
<glyph name="five" format="1">
  <advance width="1228"/>
  <unicode hex="0035"/>
  <outline>
    <contour>
      <point x="452" y="1187" type="line" smooth="yes"/>
      <point x="406" y="1187"/>
      <point x="386" y="1168"/>
      <point x="375" y="1122" type="curve" smooth="yes"/>
      <point x="245" y="562" type="line" smooth="yes"/>
      <point x="234" y="516"/>
      <point x="293" y="496"/>
      <point x="379" y="496" type="curve" smooth="yes"/>
      <point x="406" y="496"/>
      <point x="428" y="502"/>
      <point x="458" y="513" type="curve" smooth="yes"/>
      <point x="513" y="534"/>
      <point x="573" y="549"/>
      <point x="632" y="549" type="curve" smooth="yes"/>
      <point x="728" y="549"/>
      <point x="780" y="499"/>
      <point x="780" y="419" type="curve" smooth="yes"/>
      <point x="780" y="310"/>
      <point x="702" y="215"/>
      <point x="540" y="215" type="curve" smooth="yes"/>
      <point x="451" y="215"/>
      <point x="354" y="248"/>
      <point x="270" y="289" type="curve" smooth="yes"/>
      <point x="242" y="303"/>
      <point x="209" y="291"/>
      <point x="170" y="206" type="curve" smooth="yes"/>
      <point x="135" y="129"/>
      <point x="140" y="86"/>
      <point x="175" y="67" type="curve" smooth="yes"/>
      <point x="274" y="13"/>
      <point x="396" y="-22"/>
      <point x="524" y="-22" type="curve" smooth="yes"/>
      <point x="895" y="-22"/>
      <point x="1048" y="196"/>
      <point x="1048" y="449" type="curve" smooth="yes"/>
      <point x="1048" y="634"/>
      <point x="935" y="776"/>
      <point x="715" y="776" type="curve" smooth="yes"/>
      <point x="649" y="776"/>
      <point x="593" y="764"/>
      <point x="527" y="739" type="curve"/>
      <point x="575" y="952" type="line"/>
      <point x="1017" y="952" type="line" smooth="yes"/>
      <point x="1062" y="952"/>
      <point x="1087" y="976"/>
      <point x="1102" y="1069" type="curve" smooth="yes"/>
      <point x="1117" y="1162"/>
      <point x="1105" y="1187"/>
      <point x="1060" y="1187" type="curve" smooth="yes"/>
    </contour>
  </outline>
</glyph>
<glyph name="question" format="1">
  <advance width="1228"/>
  <unicode hex="003F"/>
  <outline>
    <contour>
      <point x="467" y="290"/>
      <point x="427" y="272"/>
      <point x="419" y="227" type="curve" smooth="yes"/>
      <point x="388" y="53" type="line" smooth="yes"/>
      <point x="380" y="8"/>
      <point x="426" y="-10"/>
      <point x="528" y="-10" type="curve" smooth="yes"/>
      <point x="630" y="-10"/>
      <point x="670" y="8"/>
      <point x="678" y="53" type="curve" smooth="yes"/>
      <point x="709" y="227" type="line" smooth="yes"/>
      <point x="717" y="272"/>
      <point x="671" y="290"/>
      <point x="569" y="290" type="curve" smooth="yes"/>
    </contour>
    <contour>
      <point x="629" y="1269"/>
      <point x="523" y="1243"/>
      <point x="437" y="1204" type="curve" smooth="yes"/>
      <point x="395" y="1185"/>
      <point x="381" y="1150"/>
      <point x="405" y="1073" type="curve" smooth="yes"/>
      <point x="429" y="996"/>
      <point x="457" y="983"/>
      <point x="491" y="996" type="curve" smooth="yes"/>
      <point x="558" y="1024"/>
      <point x="634" y="1042"/>
      <point x="707" y="1042" type="curve" smooth="yes"/>
      <point x="801" y="1042"/>
      <point x="843" y="998"/>
      <point x="843" y="926" type="curve" smooth="yes"/>
      <point x="843" y="839"/>
      <point x="782" y="786"/>
      <point x="670" y="766" type="curve" smooth="yes"/>
      <point x="557" y="746" type="line" smooth="yes"/>
      <point x="531" y="741"/>
      <point x="521" y="721"/>
      <point x="518" y="695" type="curve" smooth="yes"/>
      <point x="495" y="467" type="line" smooth="yes"/>
      <point x="492" y="436"/>
      <point x="510" y="419"/>
      <point x="587" y="419" type="curve" smooth="yes"/>
      <point x="664" y="419"/>
      <point x="689" y="436"/>
      <point x="697" y="467" type="curve" smooth="yes"/>
      <point x="724" y="568" type="line"/>
      <point x="998" y="629"/>
      <point x="1099" y="771"/>
      <point x="1099" y="957" type="curve" smooth="yes"/>
      <point x="1099" y="1144"/>
      <point x="968" y="1269"/>
      <point x="729" y="1269" type="curve" smooth="yes"/>
    </contour>
  </outline>
</glyph>
<glyph name="B" format="1">
  <advance width="1228"/>
  <unicode hex="0042"/>
  <outline>
    <contour>
      <point x="382" y="1187" type="line" smooth="yes"/>
      <point x="337" y="1187"/>
      <point x="316" y="1169"/>
      <point x="308" y="1124" type="curve" smooth="yes"/>
      <point x="121" y="63" type="line" smooth="yes"/>
      <point x="113" y="18"/>
      <point x="128" y="0"/>
      <point x="173" y="0" type="curve" smooth="yes"/>
      <point x="607" y="0" type="line" smooth="yes"/>
      <point x="949" y="0"/>
      <point x="1099" y="166"/>
      <point x="1099" y="384" type="curve" smooth="yes"/>
      <point x="1099" y="511"/>
      <point x="1041" y="584"/>
      <point x="941" y="621" type="curve"/>
      <point x="1076" y="679"/>
      <point x="1144" y="777"/>
      <point x="1144" y="903" type="curve" smooth="yes"/>
      <point x="1144" y="1074"/>
      <point x="1025" y="1187"/>
      <point x="770" y="1187" type="curve" smooth="yes"/>
    </contour>
    <contour>
      <point x="786" y="499"/>
      <point x="840" y="463"/>
      <point x="840" y="376" type="curve" smooth="yes"/>
      <point x="840" y="284"/>
      <point x="775" y="215"/>
      <point x="619" y="215" type="curve" smooth="yes"/>
      <point x="398" y="215" type="line"/>
      <point x="447" y="499" type="line"/>
      <point x="668" y="499" type="line" smooth="yes"/>
    </contour>
    <contour>
      <point x="840" y="972"/>
      <point x="890" y="940"/>
      <point x="890" y="865" type="curve" smooth="yes"/>
      <point x="890" y="775"/>
      <point x="827" y="714"/>
      <point x="687" y="714" type="curve" smooth="yes"/>
      <point x="486" y="714" type="line"/>
      <point x="531" y="972" type="line"/>
      <point x="732" y="972" type="line" smooth="yes"/>
    </contour>
  </outline>
</glyph>
<glyph name="F" format="1">
  <advance width="1228"/>
  <unicode hex="0046"/>
  <outline>
    <contour>
      <point x="422" y="1187" type="line" smooth="yes"/>
      <point x="377" y="1187"/>
      <point x="356" y="1169"/>
      <point x="348" y="1124" type="curve" smooth="yes"/>
      <point x="161" y="63" type="line" smooth="yes"/>
      <point x="153" y="18"/>
      <point x="168" y="0"/>
      <point x="213" y="0" type="curve" smooth="yes"/>
      <point x="337" y="0" type="line" smooth="yes"/>
      <point x="382" y="0"/>
      <point x="403" y="18"/>
      <point x="411" y="63" type="curve"/>
      <point x="567" y="952" type="line"/>
      <point x="1084" y="952" type="line" smooth="yes"/>
      <point x="1129" y="952"/>
      <point x="1151" y="974"/>
      <point x="1168" y="1069" type="curve" smooth="yes"/>
      <point x="1185" y="1164"/>
      <point x="1171" y="1187"/>
      <point x="1126" y="1187" type="curve" smooth="yes"/>
    </contour>
    <contour>
      <point x="451" y="667" type="line"/>
      <point x="410" y="432" type="line"/>
      <point x="910" y="432" type="line" smooth="yes"/>
      <point x="955" y="432"/>
      <point x="977" y="454"/>
      <point x="993" y="549" type="curve" smooth="yes"/>
      <point x="1010" y="644"/>
      <point x="996" y="667"/>
      <point x="951" y="667" type="curve" smooth="yes"/>
    </contour>
  </outline>
</glyph>
<glyph name="M" format="1">
  <advance width="1228"/>
  <unicode hex="004D"/>
  <outline>
    <contour>
      <point x="1047" y="1187" type="line" smooth="yes"/>
      <point x="1020" y="1187"/>
      <point x="1003" y="1179"/>
      <point x="987" y="1156" type="curve" smooth="yes"/>
      <point x="649" y="665" type="line"/>
      <point x="502" y="1156" type="line" smooth="yes"/>
      <point x="495" y="1179"/>
      <point x="481" y="1187"/>
      <point x="454" y="1187" type="curve" smooth="yes"/>
      <point x="342" y="1187" type="line" smooth="yes"/>
      <point x="297" y="1187"/>
      <point x="277" y="1169"/>
      <point x="268" y="1124" type="curve" smooth="yes"/>
      <point x="61" y="63" type="line" smooth="yes"/>
      <point x="52" y="18"/>
      <point x="68" y="0"/>
      <point x="113" y="0" type="curve" smooth="yes"/>
      <point x="220" y="0" type="line" smooth="yes"/>
      <point x="265" y="0"/>
      <point x="286" y="18"/>
      <point x="294" y="63" type="curve" smooth="yes"/>
      <point x="411" y="694" type="line"/>
      <point x="508" y="375" type="line" smooth="yes"/>
      <point x="521" y="331"/>
      <point x="543" y="315"/>
      <point x="600" y="315" type="curve" smooth="yes"/>
      <point x="657" y="315"/>
      <point x="683" y="332"/>
      <point x="712" y="375" type="curve" smooth="yes"/>
      <point x="917" y="677" type="line"/>
      <point x="816" y="63" type="line" smooth="yes"/>
      <point x="809" y="18"/>
      <point x="823" y="0"/>
      <point x="868" y="0" type="curve" smooth="yes"/>
      <point x="975" y="0" type="line" smooth="yes"/>
      <point x="1020" y="0"/>
      <point x="1042" y="18"/>
      <point x="1049" y="63" type="curve" smooth="yes"/>
      <point x="1216" y="1124" type="line" smooth="yes"/>
      <point x="1223" y="1169"/>
      <point x="1209" y="1187"/>
      <point x="1164" y="1187" type="curve" smooth="yes"/>
    </contour>
  </outline>
</glyph>
<glyph name="P" format="1">
  <advance width="1228"/>
  <unicode hex="0050"/>
  <outline>
    <contour>
      <point x="402" y="1187" type="line" smooth="yes"/>
      <point x="357" y="1187"/>
      <point x="336" y="1169"/>
      <point x="328" y="1124" type="curve" smooth="yes"/>
      <point x="141" y="63" type="line" smooth="yes"/>
      <point x="133" y="18"/>
      <point x="148" y="0"/>
      <point x="193" y="0" type="curve" smooth="yes"/>
      <point x="317" y="0" type="line" smooth="yes"/>
      <point x="362" y="0"/>
      <point x="383" y="18"/>
      <point x="391" y="63" type="curve" smooth="yes"/>
      <point x="440" y="342" type="line"/>
      <point x="650" y="342" type="line" smooth="yes"/>
      <point x="982" y="342"/>
      <point x="1173" y="527"/>
      <point x="1173" y="818" type="curve" smooth="yes"/>
      <point x="1173" y="1044"/>
      <point x="1035" y="1187"/>
      <point x="749" y="1187" type="curve" smooth="yes"/>
    </contour>
    <contour>
      <point x="845" y="952"/>
      <point x="915" y="904"/>
      <point x="915" y="798" type="curve" smooth="yes"/>
      <point x="915" y="646"/>
      <point x="813" y="577"/>
      <point x="645" y="577" type="curve" smooth="yes"/>
      <point x="481" y="577" type="line"/>
      <point x="547" y="952" type="line"/>
      <point x="702" y="952" type="line" smooth="yes"/>
    </contour>
  </outline>
</glyph>
<glyph name="T" format="1">
  <advance width="1228"/>
  <unicode hex="0054"/>
  <outline>
    <contour>
      <point x="292" y="1187" type="line" smooth="yes"/>
      <point x="247" y="1187"/>
      <point x="225" y="1164"/>
      <point x="208" y="1069" type="curve" smooth="yes"/>
      <point x="191" y="974"/>
      <point x="205" y="952"/>
      <point x="250" y="952" type="curve" smooth="yes"/>
      <point x="586" y="952" type="line"/>
      <point x="430" y="63" type="line" smooth="yes"/>
      <point x="422" y="18"/>
      <point x="437" y="0"/>
      <point x="482" y="0" type="curve" smooth="yes"/>
      <point x="606" y="0" type="line" smooth="yes"/>
      <point x="651" y="0"/>
      <point x="672" y="18"/>
      <point x="680" y="63" type="curve" smooth="yes"/>
      <point x="836" y="952" type="line"/>
      <point x="1152" y="952" type="line" smooth="yes"/>
      <point x="1197" y="952"/>
      <point x="1219" y="974"/>
      <point x="1236" y="1069" type="curve" smooth="yes"/>
      <point x="1253" y="1164"/>
      <point x="1239" y="1187"/>
      <point x="1194" y="1187" type="curve" smooth="yes"/>
    </contour>
  </outline>
</glyph>
<glyph name="bracketleft" format="1">
  <advance width="1228"/>
  <unicode hex="005B"/>
  <outline>
    <contour>
      <point x="514" y="1312" type="line" smooth="yes"/>
      <point x="469" y="1312"/>
      <point x="448" y="1294"/>
      <point x="440" y="1249" type="curve" smooth="yes"/>
      <point x="161" y="-330" type="line" smooth="yes"/>
      <point x="153" y="-375"/>
      <point x="168" y="-393"/>
      <point x="213" y="-393" type="curve" smooth="yes"/>
      <point x="723" y="-393" type="line" smooth="yes"/>
      <point x="768" y="-393"/>
      <point x="791" y="-373"/>
      <point x="806" y="-280" type="curve" smooth="yes"/>
      <point x="821" y="-187"/>
      <point x="808" y="-168"/>
      <point x="763" y="-168" type="curve" smooth="yes"/>
      <point x="440" y="-168" type="line"/>
      <point x="661" y="1087" type="line"/>
      <point x="984" y="1087" type="line" smooth="yes"/>
      <point x="1029" y="1087"/>
      <point x="1052" y="1114"/>
      <point x="1067" y="1199" type="curve" smooth="yes"/>
      <point x="1082" y="1292"/>
      <point x="1069" y="1312"/>
      <point x="1024" y="1312" type="curve" smooth="yes"/>
    </contour>
  </outline>
</glyph>
<glyph name="grave" format="1">
  <advance width="1228"/>
  <unicode hex="0060"/>
  <outline>
    <contour>
      <point x="547" y="1458"/>
      <point x="500" y="1441"/>
      <point x="446" y="1369" type="curve" smooth="yes"/>
      <point x="391" y="1295"/>
      <point x="400" y="1247"/>
      <point x="430" y="1232" type="curve" smooth="yes"/>
      <point x="837" y="1027" type="line" smooth="yes"/>
      <point x="865" y="1013"/>
      <point x="898" y="1024"/>
      <point x="928" y="1072" type="curve" smooth="yes"/>
      <point x="958" y="1121"/>
      <point x="956" y="1158"/>
      <point x="929" y="1178" type="curve" smooth="yes"/>
      <point x="582" y="1433" type="line" smooth="yes"/>
    </contour>
  </outline>
</glyph>
<glyph name="o" format="1">
  <advance width="1228"/>
  <unicode hex="006F"/>
  <outline>
    <contour>
      <point x="300" y="946"/>
      <point x="119" y="650"/>
      <point x="119" y="388" type="curve" smooth="yes"/>
      <point x="119" y="153"/>
      <point x="276" y="-22"/>
      <point x="550" y="-22" type="curve" smooth="yes"/>
      <point x="960" y="-22"/>
      <point x="1130" y="285"/>
      <point x="1130" y="536" type="curve" smooth="yes"/>
      <point x="1130" y="770"/>
      <point x="973" y="946"/>
      <point x="700" y="946" type="curve" smooth="yes"/>
    </contour>
    <contour>
      <point x="795" y="714"/>
      <point x="869" y="643"/>
      <point x="869" y="522" type="curve" smooth="yes"/>
      <point x="869" y="360"/>
      <point x="762" y="210"/>
      <point x="580" y="210" type="curve" smooth="yes"/>
      <point x="455" y="210"/>
      <point x="380" y="280"/>
      <point x="380" y="401" type="curve" smooth="yes"/>
      <point x="380" y="563"/>
      <point x="487" y="714"/>
      <point x="670" y="714" type="curve" smooth="yes"/>
    </contour>
  </outline>
</glyph>
<glyph name="q" format="1">
  <advance width="1228"/>
  <unicode hex="0071"/>
  <outline>
    <contour>
      <point x="291" y="946"/>
      <point x="129" y="632"/>
      <point x="129" y="380" type="curve" smooth="yes"/>
      <point x="129" y="144"/>
      <point x="265" y="-22"/>
      <point x="484" y="-22" type="curve" smooth="yes"/>
      <point x="587" y="-22"/>
      <point x="677" y="21"/>
      <point x="757" y="91" type="curve"/>
      <point x="683" y="-325" type="line" smooth="yes"/>
      <point x="675" y="-370"/>
      <point x="690" y="-388"/>
      <point x="735" y="-388" type="curve" smooth="yes"/>
      <point x="859" y="-388" type="line" smooth="yes"/>
      <point x="904" y="-388"/>
      <point x="925" y="-370"/>
      <point x="933" y="-325" type="curve" smooth="yes"/>
      <point x="1142" y="861" type="line" smooth="yes"/>
      <point x="1150" y="906"/>
      <point x="1135" y="924"/>
      <point x="1090" y="924" type="curve" smooth="yes"/>
      <point x="996" y="924" type="line" smooth="yes"/>
      <point x="951" y="924"/>
      <point x="929" y="906"/>
      <point x="922" y="861" type="curve" smooth="yes"/>
      <point x="909" y="782" type="line"/>
      <point x="860" y="881"/>
      <point x="757" y="946"/>
      <point x="634" y="946" type="curve" smooth="yes"/>
    </contour>
    <contour>
      <point x="753" y="714"/>
      <point x="835" y="647"/>
      <point x="835" y="522" type="curve" smooth="yes"/>
      <point x="835" y="377"/>
      <point x="736" y="210"/>
      <point x="556" y="210" type="curve" smooth="yes"/>
      <point x="451" y="210"/>
      <point x="389" y="279"/>
      <point x="389" y="391" type="curve" smooth="yes"/>
      <point x="389" y="525"/>
      <point x="462" y="714"/>
      <point x="644" y="714" type="curve" smooth="yes"/>
    </contour>
  </outline>
</glyph>
<glyph name="r" format="1">
  <advance width="1228"/>
  <unicode hex="0072"/>
  <outline>
    <contour>
      <point x="805" y="946"/>
      <point x="646" y="850"/>
      <point x="538" y="690" type="curve"/>
      <point x="568" y="861" type="line" smooth="yes"/>
      <point x="576" y="906"/>
      <point x="561" y="924"/>
      <point x="516" y="924" type="curve" smooth="yes"/>
      <point x="412" y="924" type="line" smooth="yes"/>
      <point x="367" y="924"/>
      <point x="346" y="906"/>
      <point x="338" y="861" type="curve" smooth="yes"/>
      <point x="198" y="63" type="line" smooth="yes"/>
      <point x="190" y="18"/>
      <point x="205" y="0"/>
      <point x="250" y="0" type="curve" smooth="yes"/>
      <point x="374" y="0" type="line" smooth="yes"/>
      <point x="419" y="0"/>
      <point x="440" y="18"/>
      <point x="448" y="63" type="curve" smooth="yes"/>
      <point x="488" y="290" type="line" smooth="yes"/>
      <point x="528" y="517"/>
      <point x="721" y="678"/>
      <point x="923" y="678" type="curve" smooth="yes"/>
      <point x="959" y="678"/>
      <point x="995" y="673"/>
      <point x="1031" y="662" type="curve" smooth="yes"/>
      <point x="1076" y="648"/>
      <point x="1114" y="682"/>
      <point x="1142" y="767" type="curve" smooth="yes"/>
      <point x="1166" y="845"/>
      <point x="1161" y="894"/>
      <point x="1109" y="916" type="curve" smooth="yes"/>
      <point x="1062" y="936"/>
      <point x="1012" y="946"/>
      <point x="963" y="946" type="curve" smooth="yes"/>
    </contour>
  </outline>
</glyph>
<glyph name="u" format="1">
  <advance width="1228"/>
  <unicode hex="0075"/>
  <outline>
    <contour>
      <point x="963" y="924" type="line" smooth="yes"/>
      <point x="918" y="924"/>
      <point x="897" y="906"/>
      <point x="889" y="861" type="curve" smooth="yes"/>
      <point x="837" y="566" type="line" smooth="yes"/>
      <point x="804" y="378"/>
      <point x="639" y="215"/>
      <point x="510" y="215" type="curve" smooth="yes"/>
      <point x="430" y="215"/>
      <point x="396" y="256"/>
      <point x="396" y="324" type="curve" smooth="yes"/>
      <point x="396" y="339"/>
      <point x="398" y="355"/>
      <point x="401" y="373" type="curve" smooth="yes"/>
      <point x="487" y="861" type="line" smooth="yes"/>
      <point x="495" y="906"/>
      <point x="480" y="924"/>
      <point x="435" y="924" type="curve" smooth="yes"/>
      <point x="311" y="924" type="line" smooth="yes"/>
      <point x="266" y="924"/>
      <point x="245" y="906"/>
      <point x="237" y="861" type="curve" smooth="yes"/>
      <point x="145" y="334" type="line" smooth="yes"/>
      <point x="141" y="310"/>
      <point x="139" y="287"/>
      <point x="139" y="264" type="curve" smooth="yes"/>
      <point x="139" y="99"/>
      <point x="249" y="-22"/>
      <point x="424" y="-22" type="curve" smooth="yes"/>
      <point x="569" y="-22"/>
      <point x="698" y="61"/>
      <point x="800" y="188" type="curve"/>
      <point x="779" y="63" type="line" smooth="yes"/>
      <point x="771" y="18"/>
      <point x="786" y="0"/>
      <point x="831" y="0" type="curve" smooth="yes"/>
      <point x="925" y="0" type="line" smooth="yes"/>
      <point x="970" y="0"/>
      <point x="991" y="18"/>
      <point x="999" y="63" type="curve" smooth="yes"/>
      <point x="1139" y="861" type="line" smooth="yes"/>
      <point x="1147" y="906"/>
      <point x="1132" y="924"/>
      <point x="1087" y="924" type="curve" smooth="yes"/>
    </contour>
  </outline>
</glyph>
<glyph name="x" format="1">
  <advance width="1228"/>
  <unicode hex="0078"/>
  <outline>
    <contour>
      <point x="1013" y="951"/>
      <point x="953" y="950"/>
      <point x="915" y="910" type="curve" smooth="yes"/>
      <point x="573" y="558" type="line"/>
      <point x="541" y="570" type="line"/>
      <point x="123" y="162" type="line" smooth="yes"/>
      <point x="75" y="115"/>
      <point x="86" y="72"/>
      <point x="159" y="21" type="curve" smooth="yes"/>
      <point x="229" y="-28"/>
      <point x="287" y="-26"/>
      <point x="325" y="14" type="curve" smooth="yes"/>
      <point x="667" y="366" type="line"/>
      <point x="699" y="354" type="line"/>
      <point x="1117" y="762" type="line" smooth="yes"/>
      <point x="1165" y="809"/>
      <point x="1156" y="851"/>
      <point x="1083" y="902" type="curve" smooth="yes"/>
    </contour>
    <contour>
      <point x="215" y="847"/>
      <point x="205" y="808"/>
      <point x="239" y="762" type="curve" smooth="yes"/>
      <point x="533" y="364" type="line"/>
      <point x="569" y="356" type="line"/>
      <point x="807" y="14" type="line" smooth="yes"/>
      <point x="834" y="-25"/>
      <point x="873" y="-24"/>
      <point x="956" y="25" type="curve" smooth="yes"/>
      <point x="1047" y="79"/>
      <point x="1055" y="117"/>
      <point x="1021" y="162" type="curve" smooth="yes"/>
      <point x="727" y="560" type="line"/>
      <point x="691" y="568" type="line"/>
      <point x="453" y="910" type="line" smooth="yes"/>
      <point x="426" y="949"/>
      <point x="389" y="950"/>
      <point x="305" y="900" type="curve" smooth="yes"/>
    </contour>
  </outline>
</glyph>
<glyph name="y" format="1">
  <advance width="1228"/>
  <unicode hex="0079"/>
  <outline>
    <contour>
      <point x="1005" y="953"/>
      <point x="963" y="944"/>
      <point x="937" y="900" type="curve" smooth="yes"/>
      <point x="477" y="122" type="line"/>
      <point x="200" y="-284" type="line" smooth="yes"/>
      <point x="169" y="-329"/>
      <point x="193" y="-362"/>
      <point x="287" y="-390" type="curve" smooth="yes"/>
      <point x="379" y="-417"/>
      <point x="420" y="-407"/>
      <point x="447" y="-364" type="curve" smooth="yes"/>
      <point x="1184" y="820" type="line" smooth="yes"/>
      <point x="1213" y="866"/>
      <point x="1191" y="898"/>
      <point x="1097" y="926" type="curve" smooth="yes"/>
    </contour>
    <contour>
      <point x="206" y="911"/>
      <point x="175" y="881"/>
      <point x="187" y="836" type="curve" smooth="yes"/>
      <point x="429" y="-78" type="line"/>
      <point x="608" y="190" type="line"/>
      <point x="436" y="890" type="line" smooth="yes"/>
      <point x="425" y="934"/>
      <point x="389" y="942"/>
      <point x="296" y="926" type="curve" smooth="yes"/>
    </contour>
  </outline>
</glyph>
<glyph name="z" format="1">
  <advance width="1228"/>
  <unicode hex="007A"/>
  <outline>
    <contour>
      <point x="967" y="0" type="line" smooth="yes"/>
      <point x="1012" y="0"/>
      <point x="1034" y="23"/>
      <point x="1049" y="113" type="curve" smooth="yes"/>
      <point x="1065" y="203"/>
      <point x="1051" y="225"/>
      <point x="1006" y="225" type="curve" smooth="yes"/>
      <point x="530" y="225" type="line"/>
      <point x="1098" y="740" type="line" smooth="yes"/>
      <point x="1126" y="765"/>
      <point x="1136" y="786"/>
      <point x="1140" y="822" type="curve" smooth="yes"/>
      <point x="1150" y="907"/>
      <point x="1137" y="924"/>
      <point x="1092" y="924" type="curve" smooth="yes"/>
      <point x="293" y="924" type="line" smooth="yes"/>
      <point x="248" y="924"/>
      <point x="226" y="901"/>
      <point x="211" y="811" type="curve" smooth="yes"/>
      <point x="195" y="721"/>
      <point x="209" y="699"/>
      <point x="254" y="699" type="curve" smooth="yes"/>
      <point x="709" y="699" type="line"/>
      <point x="142" y="184" type="line" smooth="yes"/>
      <point x="114" y="159"/>
      <point x="104" y="138"/>
      <point x="99" y="102" type="curve" smooth="yes"/>
      <point x="87" y="17"/>
      <point x="103" y="0"/>
      <point x="148" y="0" type="curve" smooth="yes"/>
    </contour>
  </outline>
</glyph>
<glyph name="braceright" format="1">
  <advance width="1228"/>
  <unicode hex="007D"/>
  <outline>
    <contour>
      <point x="489" y="1312"/>
      <point x="467" y="1294"/>
      <point x="452" y="1205" type="curve" smooth="yes"/>
      <point x="437" y="1116"/>
      <point x="452" y="1099"/>
      <point x="497" y="1099" type="curve" smooth="yes"/>
      <point x="601" y="1099"/>
      <point x="642" y="1043"/>
      <point x="621" y="917" type="curve" smooth="yes"/>
      <point x="598" y="780" type="line" smooth="yes"/>
      <point x="575" y="643"/>
      <point x="619" y="543"/>
      <point x="705" y="491" type="curve"/>
      <point x="604" y="441"/>
      <point x="523" y="360"/>
      <point x="499" y="223" type="curve" smooth="yes"/>
      <point x="460" y="2" type="line" smooth="yes"/>
      <point x="438" y="-124"/>
      <point x="373" y="-180"/>
      <point x="269" y="-180" type="curve" smooth="yes"/>
      <point x="224" y="-180"/>
      <point x="204" y="-196"/>
      <point x="189" y="-285" type="curve" smooth="yes"/>
      <point x="174" y="-374"/>
      <point x="188" y="-393"/>
      <point x="233" y="-393" type="curve" smooth="yes"/>
      <point x="500" y="-393"/>
      <point x="657" y="-289"/>
      <point x="704" y="-30" type="curve" smooth="yes"/>
      <point x="744" y="193" type="line" smooth="yes"/>
      <point x="765" y="310"/>
      <point x="830" y="375"/>
      <point x="957" y="375" type="curve" smooth="yes"/>
      <point x="1002" y="375"/>
      <point x="1023" y="392"/>
      <point x="1038" y="481" type="curve" smooth="yes"/>
      <point x="1053" y="570"/>
      <point x="1038" y="588"/>
      <point x="993" y="588" type="curve" smooth="yes"/>
      <point x="866" y="588"/>
      <point x="825" y="653"/>
      <point x="845" y="770" type="curve" smooth="yes"/>
      <point x="869" y="909" type="line" smooth="yes"/>
      <point x="913" y="1166"/>
      <point x="801" y="1312"/>
      <point x="534" y="1312" type="curve" smooth="yes"/>
    </contour>
  </outline>
</glyph>
<glyph name="yen" format="1">
  <advance width="1228"/>
  <unicode hex="00A5"/>
  <outline>
    <contour>
      <point x="1053" y="1210"/>
      <point x="1012" y="1210"/>
      <point x="979" y="1169" type="curve" smooth="yes"/>
      <point x="589" y="673" type="line"/>
      <point x="695" y="667" type="line"/>
      <point x="479" y="1169" type="line" smooth="yes"/>
      <point x="461" y="1210"/>
      <point x="427" y="1209"/>
      <point x="340" y="1174" type="curve" smooth="yes"/>
      <point x="249" y="1137"/>
      <point x="232" y="1110"/>
      <point x="250" y="1069" type="curve" smooth="yes"/>
      <point x="546" y="409" type="line"/>
      <point x="681" y="409" type="line"/>
      <point x="1194" y="1049" type="line" smooth="yes"/>
      <point x="1229" y="1093"/>
      <point x="1224" y="1132"/>
      <point x="1134" y="1173" type="curve" smooth="yes"/>
    </contour>
    <contour>
      <point x="510" y="566" type="line"/>
      <point x="422" y="63" type="line" smooth="yes"/>
      <point x="414" y="18"/>
      <point x="429" y="0"/>
      <point x="474" y="0" type="curve" smooth="yes"/>
      <point x="598" y="0" type="line" smooth="yes"/>
      <point x="643" y="0"/>
      <point x="664" y="18"/>
      <point x="672" y="63" type="curve" smooth="yes"/>
      <point x="760" y="566" type="line"/>
    </contour>
    <contour>
      <point x="219" y="492" type="line" smooth="yes"/>
      <point x="174" y="492"/>
      <point x="153" y="474"/>
      <point x="136" y="379" type="curve" smooth="yes"/>
      <point x="120" y="284"/>
      <point x="135" y="267"/>
      <point x="180" y="267" type="curve" smooth="yes"/>
      <point x="1002" y="267" type="line" smooth="yes"/>
      <point x="1047" y="267"/>
      <point x="1068" y="284"/>
      <point x="1084" y="379" type="curve" smooth="yes"/>
      <point x="1101" y="474"/>
      <point x="1086" y="492"/>
      <point x="1041" y="492" type="curve" smooth="yes"/>
    </contour>
    <contour>
      <point x="262" y="850" type="line" smooth="yes"/>
      <point x="217" y="850"/>
      <point x="196" y="832"/>
      <point x="179" y="737" type="curve" smooth="yes"/>
      <point x="163" y="642"/>
      <point x="178" y="625"/>
      <point x="223" y="625" type="curve" smooth="yes"/>
      <point x="522" y="625" type="line"/>
      <point x="431" y="850" type="line"/>
    </contour>
    <contour>
      <point x="917" y="850" type="line"/>
      <point x="738" y="625" type="line"/>
      <point x="1085" y="625" type="line" smooth="yes"/>
      <point x="1130" y="625"/>
      <point x="1151" y="642"/>
      <point x="1167" y="737" type="curve" smooth="yes"/>
      <point x="1184" y="832"/>
      <point x="1169" y="850"/>
      <point x="1124" y="850" type="curve" smooth="yes"/>
    </contour>
  </outline>
</glyph>
<glyph name="logicalnot" format="1">
  <advance width="1228"/>
  <unicode hex="00AC"/>
  <outline>
    <contour>
      <point x="261" y="845" type="line" smooth="yes"/>
      <point x="216" y="845"/>
      <point x="194" y="827"/>
      <point x="179" y="733" type="curve" smooth="yes"/>
      <point x="163" y="639"/>
      <point x="177" y="620"/>
      <point x="222" y="620" type="curve" smooth="yes"/>
      <point x="887" y="620" type="line"/>
      <point x="832" y="308" type="line" smooth="yes"/>
      <point x="824" y="263"/>
      <point x="844" y="245"/>
      <point x="939" y="245" type="curve" smooth="yes"/>
      <point x="1034" y="245"/>
      <point x="1074" y="263"/>
      <point x="1082" y="308" type="curve" smooth="yes"/>
      <point x="1165" y="780" type="line" smooth="yes"/>
      <point x="1173" y="826"/>
      <point x="1157" y="845"/>
      <point x="1111" y="845" type="curve" smooth="yes"/>
    </contour>
  </outline>
</glyph>
<glyph name="degree" format="1">
  <advance width="1228"/>
  <unicode hex="00B0"/>
  <outline>
    <contour>
      <point x="440" y="1209"/>
      <point x="303" y="1053"/>
      <point x="303" y="851" type="curve" smooth="yes"/>
      <point x="303" y="682"/>
      <point x="415" y="565"/>
      <point x="591" y="565" type="curve" smooth="yes"/>
      <point x="816" y="565"/>
      <point x="953" y="721"/>
      <point x="953" y="923" type="curve" smooth="yes"/>
      <point x="953" y="1092"/>
      <point x="841" y="1209"/>
      <point x="665" y="1209" type="curve" smooth="yes"/>
    </contour>
    <contour>
      <point x="702" y="998"/>
      <point x="741" y="961"/>
      <point x="741" y="906" type="curve" smooth="yes"/>
      <point x="741" y="832"/>
      <point x="685" y="776"/>
      <point x="613" y="776" type="curve" smooth="yes"/>
      <point x="554" y="776"/>
      <point x="515" y="813"/>
      <point x="515" y="868" type="curve" smooth="yes"/>
      <point x="515" y="942"/>
      <point x="571" y="998"/>
      <point x="643" y="998" type="curve" smooth="yes"/>
    </contour>
  </outline>
</glyph>
<glyph name="acute" format="1">
  <advance width="1228"/>
  <unicode hex="00B4"/>
  <outline>
    <contour>
      <point x="551" y="1165" type="line" smooth="yes"/>
      <point x="521" y="1148"/>
      <point x="513" y="1116"/>
      <point x="528" y="1072" type="curve" smooth="yes"/>
      <point x="542" y="1032"/>
      <point x="564" y="1021"/>
      <point x="596" y="1030" type="curve" smooth="yes"/>
      <point x="1070" y="1162" type="line" smooth="yes"/>
      <point x="1104" y="1171"/>
      <point x="1119" y="1209"/>
      <point x="1079" y="1301" type="curve" smooth="yes"/>
      <point x="1039" y="1392"/>
      <point x="997" y="1413"/>
      <point x="959" y="1392" type="curve" smooth="yes"/>
    </contour>
  </outline>
</glyph>
<glyph name="threequarters" format="1">
  <advance width="1228"/>
  <unicode hex="00BE"/>
  <outline>
    <contour>
      <point x="352" y="1394"/>
      <point x="261" y="1378"/>
      <point x="186" y="1349" type="curve" smooth="yes"/>
      <point x="157" y="1337"/>
      <point x="144" y="1313"/>
      <point x="157" y="1260" type="curve" smooth="yes"/>
      <point x="170" y="1207"/>
      <point x="195" y="1199"/>
      <point x="222" y="1209" type="curve" smooth="yes"/>
      <point x="290" y="1235"/>
      <point x="357" y="1249"/>
      <point x="413" y="1249" type="curve" smooth="yes"/>
      <point x="480" y="1249"/>
      <point x="511" y="1226"/>
      <point x="511" y="1187" type="curve" smooth="yes"/>
      <point x="511" y="1146"/>
      <point x="481" y="1105"/>
      <point x="393" y="1105" type="curve" smooth="yes"/>
      <point x="307" y="1105" type="line" smooth="yes"/>
      <point x="281" y="1105"/>
      <point x="263" y="1087"/>
      <point x="254" y="1033" type="curve" smooth="yes"/>
      <point x="245" y="980"/>
      <point x="256" y="962"/>
      <point x="281" y="962" type="curve" smooth="yes"/>
      <point x="384" y="962" type="line" smooth="yes"/>
      <point x="435" y="962"/>
      <point x="462" y="940"/>
      <point x="462" y="903" type="curve" smooth="yes"/>
      <point x="462" y="849"/>
      <point x="424" y="813"/>
      <point x="324" y="813" type="curve" smooth="yes"/>
      <point x="261" y="813"/>
      <point x="190" y="833"/>
      <point x="138" y="856" type="curve" smooth="yes"/>
      <point x="119" y="865"/>
      <point x="91" y="846"/>
      <point x="74" y="801" type="curve" smooth="yes"/>
      <point x="57" y="754"/>
      <point x="63" y="726"/>
      <point x="89" y="714" type="curve" smooth="yes"/>
      <point x="147" y="687"/>
      <point x="240" y="669"/>
      <point x="322" y="669" type="curve" smooth="yes"/>
      <point x="574" y="669"/>
      <point x="636" y="793"/>
      <point x="636" y="897" type="curve" smooth="yes"/>
      <point x="636" y="957"/>
      <point x="604" y="1004"/>
      <point x="550" y="1029" type="curve"/>
      <point x="635" y="1063"/>
      <point x="681" y="1122"/>
      <point x="681" y="1208" type="curve" smooth="yes"/>
      <point x="681" y="1318"/>
      <point x="595" y="1394"/>
      <point x="433" y="1394" type="curve" smooth="yes"/>
    </contour>
    <contour>
      <point x="1013" y="503"/>
      <point x="977" y="490"/>
      <point x="955" y="466" type="curve" smooth="yes"/>
      <point x="574" y="83" type="line" smooth="yes"/>
      <point x="557" y="66"/>
      <point x="550" y="51"/>
      <point x="550" y="30" type="curve" smooth="yes"/>
      <point x="550" y="-17"/>
      <point x="570" y="-63"/>
      <point x="597" y="-63" type="curve" smooth="yes"/>
      <point x="888" y="-63" type="line"/>
      <point x="867" y="-184" type="line" smooth="yes"/>
      <point x="862" y="-210"/>
      <point x="885" y="-224"/>
      <point x="951" y="-224" type="curve" smooth="yes"/>
      <point x="1010" y="-224"/>
      <point x="1027" y="-210"/>
      <point x="1032" y="-184" type="curve" smooth="yes"/>
      <point x="1054" y="-63" type="line"/>
      <point x="1128" y="-63" type="line" smooth="yes"/>
      <point x="1159" y="-63"/>
      <point x="1176" y="-42"/>
      <point x="1185" y="8" type="curve" smooth="yes"/>
      <point x="1193" y="57"/>
      <point x="1185" y="79"/>
      <point x="1154" y="79" type="curve" smooth="yes"/>
      <point x="1078" y="79" type="line"/>
      <point x="1145" y="457" type="line" smooth="yes"/>
      <point x="1150" y="484"/>
      <point x="1122" y="503"/>
      <point x="1061" y="503" type="curve" smooth="yes"/>
    </contour>
    <contour>
      <point x="913" y="79" type="line"/>
      <point x="763" y="79" type="line"/>
      <point x="965" y="291" type="line"/>
    </contour>
    <contour>
      <point x="91" y="329" type="line" smooth="yes"/>
      <point x="61" y="313"/>
      <point x="58" y="286"/>
      <point x="80" y="240" type="curve" smooth="yes"/>
      <point x="102" y="194"/>
      <point x="124" y="188"/>
      <point x="149" y="200" type="curve" smooth="yes"/>
      <point x="1178" y="721" type="line" smooth="yes"/>
      <point x="1208" y="737"/>
      <point x="1211" y="764"/>
      <point x="1189" y="810" type="curve" smooth="yes"/>
      <point x="1167" y="856"/>
      <point x="1145" y="862"/>
      <point x="1120" y="850" type="curve" smooth="yes"/>
    </contour>
  </outline>
</glyph>
<glyph name="Oslash" format="1">
  <advance width="1228"/>
  <unicode hex="00D8"/>
  <outline>
    <contour>
      <point x="1152" y="1274"/>
      <point x="1127" y="1270"/>
      <point x="1094" y="1233" type="curve" smooth="yes"/>
      <point x="1008" y="1135" type="line"/>
      <point x="934" y="1183"/>
      <point x="843" y="1209"/>
      <point x="737" y="1209" type="curve" smooth="yes"/>
      <point x="525" y="1209"/>
      <point x="353" y="1120"/>
      <point x="238" y="956" type="curve" smooth="yes"/>
      <point x="141" y="818"/>
      <point x="91" y="629"/>
      <point x="91" y="471" type="curve" smooth="yes"/>
      <point x="91" y="354"/>
      <point x="118" y="254"/>
      <point x="169" y="175" type="curve"/>
      <point x="71" y="63" type="line" smooth="yes"/>
      <point x="38" y="26"/>
      <point x="39" y="1"/>
      <point x="93" y="-42" type="curve" smooth="yes"/>
      <point x="147" y="-85"/>
      <point x="172" y="-81"/>
      <point x="205" y="-44" type="curve" smooth="yes"/>
      <point x="289" y="52" type="line"/>
      <point x="363" y="4"/>
      <point x="454" y="-22"/>
      <point x="560" y="-22" type="curve" smooth="yes"/>
      <point x="772" y="-22"/>
      <point x="944" y="67"/>
      <point x="1059" y="231" type="curve" smooth="yes"/>
      <point x="1156" y="369"/>
      <point x="1206" y="558"/>
      <point x="1206" y="716" type="curve" smooth="yes"/>
      <point x="1206" y="832"/>
      <point x="1179" y="933"/>
      <point x="1128" y="1012" type="curve"/>
      <point x="1228" y="1126" type="line" smooth="yes"/>
      <point x="1261" y="1163"/>
      <point x="1259" y="1188"/>
      <point x="1206" y="1231" type="curve" smooth="yes"/>
    </contour>
    <contour>
      <point x="942" y="770"/>
      <point x="944" y="743"/>
      <point x="944" y="715" type="curve" smooth="yes"/>
      <point x="944" y="595"/>
      <point x="907" y="442"/>
      <point x="833" y="343" type="curve" smooth="yes"/>
      <point x="771" y="260"/>
      <point x="688" y="215"/>
      <point x="580" y="215" type="curve" smooth="yes"/>
      <point x="531" y="215"/>
      <point x="489" y="225"/>
      <point x="456" y="243" type="curve"/>
      <point x="937" y="794" type="line"/>
    </contour>
    <contour>
      <point x="766" y="972"/>
      <point x="808" y="962"/>
      <point x="841" y="943" type="curve"/>
      <point x="360" y="393" type="line"/>
      <point x="355" y="417"/>
      <point x="353" y="444"/>
      <point x="353" y="472" type="curve"/>
      <point x="353" y="592"/>
      <point x="390" y="745"/>
      <point x="464" y="844" type="curve" smooth="yes"/>
      <point x="526" y="927"/>
      <point x="609" y="972"/>
      <point x="717" y="972" type="curve" smooth="yes"/>
    </contour>
  </outline>
</glyph>
<glyph name="Thorn" format="1">
  <advance width="1228"/>
  <unicode hex="00DE"/>
  <outline>
    <contour>
      <point x="486" y="977" type="line"/>
      <point x="444" y="742" type="line"/>
      <point x="665" y="742" type="line" smooth="yes"/>
      <point x="803" y="742"/>
      <point x="864" y="699"/>
      <point x="864" y="612" type="curve" smooth="yes"/>
      <point x="864" y="500"/>
      <point x="782" y="447"/>
      <point x="627" y="447" type="curve" smooth="yes"/>
      <point x="392" y="447" type="line"/>
      <point x="351" y="212" type="line"/>
      <point x="632" y="212" type="line" smooth="yes"/>
      <point x="951" y="212"/>
      <point x="1120" y="372"/>
      <point x="1120" y="636" type="curve" smooth="yes"/>
      <point x="1120" y="850"/>
      <point x="997" y="977"/>
      <point x="716" y="977" type="curve" smooth="yes"/>
    </contour>
    <contour>
      <point x="412" y="1187" type="line" smooth="yes"/>
      <point x="367" y="1187"/>
      <point x="346" y="1169"/>
      <point x="338" y="1124" type="curve" smooth="yes"/>
      <point x="151" y="63" type="line" smooth="yes"/>
      <point x="143" y="18"/>
      <point x="158" y="0"/>
      <point x="203" y="0" type="curve" smooth="yes"/>
      <point x="327" y="0" type="line" smooth="yes"/>
      <point x="372" y="0"/>
      <point x="393" y="18"/>
      <point x="401" y="63" type="curve" smooth="yes"/>
      <point x="588" y="1124" type="line" smooth="yes"/>
      <point x="596" y="1169"/>
      <point x="581" y="1187"/>
      <point x="536" y="1187" type="curve" smooth="yes"/>
    </contour>
  </outline>
</glyph>
<glyph name="thorn" format="1">
  <advance width="1228"/>
  <unicode hex="00FE"/>
  <outline>
    <contour>
      <point x="390" y="1312" type="line" smooth="yes"/>
      <point x="345" y="1312"/>
      <point x="324" y="1294"/>
      <point x="316" y="1249" type="curve" smooth="yes"/>
      <point x="39" y="-325" type="line" smooth="yes"/>
      <point x="31" y="-370"/>
      <point x="46" y="-388"/>
      <point x="91" y="-388" type="curve" smooth="yes"/>
      <point x="215" y="-388" type="line" smooth="yes"/>
      <point x="260" y="-388"/>
      <point x="281" y="-370"/>
      <point x="289" y="-325" type="curve" smooth="yes"/>
      <point x="372" y="145" type="line"/>
      <point x="348" y="125" type="line"/>
      <point x="402" y="35"/>
      <point x="499" y="-22"/>
      <point x="616" y="-22" type="curve" smooth="yes"/>
      <point x="959" y="-22"/>
      <point x="1121" y="292"/>
      <point x="1121" y="544" type="curve" smooth="yes"/>
      <point x="1121" y="780"/>
      <point x="985" y="946"/>
      <point x="766" y="946" type="curve" smooth="yes"/>
      <point x="660" y="946"/>
      <point x="567" y="903"/>
      <point x="494" y="838" type="curve"/>
      <point x="566" y="1249" type="line" smooth="yes"/>
      <point x="574" y="1294"/>
      <point x="559" y="1312"/>
      <point x="514" y="1312" type="curve" smooth="yes"/>
    </contour>
    <contour>
      <point x="799" y="714"/>
      <point x="861" y="645"/>
      <point x="861" y="533" type="curve" smooth="yes"/>
      <point x="861" y="399"/>
      <point x="788" y="210"/>
      <point x="606" y="210" type="curve" smooth="yes"/>
      <point x="497" y="210"/>
      <point x="415" y="277"/>
      <point x="415" y="402" type="curve" smooth="yes"/>
      <point x="415" y="547"/>
      <point x="514" y="714"/>
      <point x="694" y="714" type="curve" smooth="yes"/>
    </contour>
  </outline>
</glyph>
<glyph name="aogonek" format="1">
  <advance width="1228"/>
  <unicode hex="0105"/>
  <outline>
    <contour>
      <point x="271" y="946"/>
      <point x="109" y="632"/>
      <point x="109" y="380" type="curve" smooth="yes"/>
      <point x="109" y="144"/>
      <point x="245" y="-22"/>
      <point x="464" y="-22" type="curve" smooth="yes"/>
      <point x="604" y="-22"/>
      <point x="725" y="26"/>
      <point x="828" y="133" type="curve"/>
      <point x="845" y="85"/>
      <point x="875" y="51"/>
      <point x="916" y="29" type="curve"/>
      <point x="774" y="-55"/>
      <point x="666" y="-151"/>
      <point x="666" y="-284" type="curve" smooth="yes"/>
      <point x="666" y="-402"/>
      <point x="754" y="-472"/>
      <point x="893" y="-472" type="curve" smooth="yes"/>
      <point x="980" y="-472"/>
      <point x="1063" y="-455"/>
      <point x="1128" y="-433" type="curve" smooth="yes"/>
      <point x="1158" y="-423"/>
      <point x="1170" y="-393"/>
      <point x="1165" y="-340" type="curve" smooth="yes"/>
      <point x="1160" y="-284"/>
      <point x="1142" y="-260"/>
      <point x="1115" y="-265" type="curve" smooth="yes"/>
      <point x="1075" y="-272"/>
      <point x="1034" y="-278"/>
      <point x="995" y="-278" type="curve" smooth="yes"/>
      <point x="946" y="-278"/>
      <point x="917" y="-260"/>
      <point x="917" y="-215" type="curve" smooth="yes"/>
      <point x="917" y="-144"/>
      <point x="994" y="-75"/>
      <point x="1116" y="11" type="curve" smooth="yes"/>
      <point x="1136" y="25"/>
      <point x="1149" y="54"/>
      <point x="1158" y="113" type="curve" smooth="yes"/>
      <point x="1173" y="206"/>
      <point x="1160" y="225"/>
      <point x="1115" y="225" type="curve" smooth="yes"/>
      <point x="1110" y="225" type="line" smooth="yes"/>
      <point x="1047" y="225"/>
      <point x="1016" y="261"/>
      <point x="1032" y="350" type="curve" smooth="yes"/>
      <point x="1122" y="861" type="line" smooth="yes"/>
      <point x="1130" y="906"/>
      <point x="1115" y="924"/>
      <point x="1070" y="924" type="curve" smooth="yes"/>
      <point x="976" y="924" type="line" smooth="yes"/>
      <point x="931" y="924"/>
      <point x="909" y="906"/>
      <point x="902" y="861" type="curve" smooth="yes"/>
      <point x="889" y="782" type="line"/>
      <point x="840" y="881"/>
      <point x="737" y="946"/>
      <point x="614" y="946" type="curve" smooth="yes"/>
    </contour>
    <contour>
      <point x="733" y="714"/>
      <point x="815" y="647"/>
      <point x="815" y="522" type="curve" smooth="yes"/>
      <point x="815" y="377"/>
      <point x="716" y="210"/>
      <point x="536" y="210" type="curve" smooth="yes"/>
      <point x="431" y="210"/>
      <point x="369" y="279"/>
      <point x="369" y="391" type="curve" smooth="yes"/>
      <point x="369" y="525"/>
      <point x="442" y="714"/>
      <point x="624" y="714" type="curve" smooth="yes"/>
    </contour>
  </outline>
</glyph>
<glyph name="dcaron" format="1">
  <advance width="1228"/>
  <unicode hex="010F"/>
  <outline>
    <contour>
      <point x="895" y="1312" type="line" smooth="yes"/>
      <point x="850" y="1312"/>
      <point x="829" y="1294"/>
      <point x="821" y="1249" type="curve" smooth="yes"/>
      <point x="740" y="794" type="line"/>
      <point x="765" y="807" type="line"/>
      <point x="716" y="908"/>
      <point x="638" y="946"/>
      <point x="539" y="946" type="curve" smooth="yes"/>
      <point x="267" y="946"/>
      <point x="77" y="680"/>
      <point x="77" y="357" type="curve" smooth="yes"/>
      <point x="77" y="138"/>
      <point x="176" y="-22"/>
      <point x="389" y="-22" type="curve" smooth="yes"/>
      <point x="510" y="-22"/>
      <point x="612" y="24"/>
      <point x="699" y="127" type="curve"/>
      <point x="719" y="33"/>
      <point x="787" y="0"/>
      <point x="861" y="0" type="curve" smooth="yes"/>
      <point x="945" y="0" type="line" smooth="yes"/>
      <point x="990" y="0"/>
      <point x="1013" y="20"/>
      <point x="1028" y="113" type="curve" smooth="yes"/>
      <point x="1043" y="206"/>
      <point x="1030" y="225"/>
      <point x="985" y="225" type="curve" smooth="yes"/>
      <point x="956" y="225" type="line" smooth="yes"/>
      <point x="913" y="225"/>
      <point x="896" y="257"/>
      <point x="905" y="310" type="curve" smooth="yes"/>
      <point x="1071" y="1249" type="line" smooth="yes"/>
      <point x="1079" y="1294"/>
      <point x="1064" y="1312"/>
      <point x="1019" y="1312" type="curve" smooth="yes"/>
    </contour>
    <contour>
      <point x="633" y="714"/>
      <point x="696" y="651"/>
      <point x="696" y="533" type="curve" smooth="yes"/>
      <point x="696" y="377"/>
      <point x="606" y="210"/>
      <point x="460" y="210" type="curve" smooth="yes"/>
      <point x="381" y="210"/>
      <point x="338" y="273"/>
      <point x="338" y="378" type="curve" smooth="yes"/>
      <point x="338" y="539"/>
      <point x="416" y="714"/>
      <point x="548" y="714" type="curve" smooth="yes"/>
    </contour>
    <component base="caron.alt" xOffset="815"/>
  </outline>
</glyph>
<glyph name="dcroat" format="1">
  <advance width="1228"/>
  <unicode hex="0111"/>
  <outline>
    <contour>
      <point x="1015" y="1312" type="line" smooth="yes"/>
      <point x="970" y="1312"/>
      <point x="949" y="1294"/>
      <point x="941" y="1249" type="curve" smooth="yes"/>
      <point x="830" y="616" type="line"/>
      <point x="886" y="666" type="line"/>
      <point x="840" y="773"/>
      <point x="731" y="846"/>
      <point x="592" y="846" type="curve" smooth="yes"/>
      <point x="313" y="846"/>
      <point x="142" y="599"/>
      <point x="142" y="350" type="curve" smooth="yes"/>
      <point x="142" y="139"/>
      <point x="269" y="-22"/>
      <point x="494" y="-22" type="curve" smooth="yes"/>
      <point x="639" y="-22"/>
      <point x="761" y="63"/>
      <point x="833" y="197" type="curve"/>
      <point x="797" y="259" type="line"/>
      <point x="762" y="63" type="line" smooth="yes"/>
      <point x="754" y="18"/>
      <point x="769" y="0"/>
      <point x="814" y="0" type="curve" smooth="yes"/>
      <point x="908" y="0" type="line" smooth="yes"/>
      <point x="953" y="0"/>
      <point x="974" y="18"/>
      <point x="982" y="63" type="curve" smooth="yes"/>
      <point x="1191" y="1249" type="line" smooth="yes"/>
      <point x="1199" y="1294"/>
      <point x="1184" y="1312"/>
      <point x="1139" y="1312" type="curve" smooth="yes"/>
    </contour>
    <contour>
      <point x="727" y="614"/>
      <point x="804" y="558"/>
      <point x="804" y="451" type="curve" smooth="yes"/>
      <point x="804" y="321"/>
      <point x="707" y="210"/>
      <point x="557" y="210" type="curve" smooth="yes"/>
      <point x="459" y="210"/>
      <point x="404" y="269"/>
      <point x="404" y="365" type="curve" smooth="yes"/>
      <point x="404" y="484"/>
      <point x="475" y="614"/>
      <point x="624" y="614" type="curve" smooth="yes"/>
    </contour>
    <contour>
      <point x="720" y="1155" type="line" smooth="yes"/>
      <point x="675" y="1155"/>
      <point x="653" y="1137"/>
      <point x="638" y="1052" type="curve" smooth="yes"/>
      <point x="624" y="967"/>
      <point x="639" y="950"/>
      <point x="684" y="950" type="curve" smooth="yes"/>
      <point x="1246" y="950" type="line" smooth="yes"/>
      <point x="1291" y="950"/>
      <point x="1312" y="967"/>
      <point x="1326" y="1052" type="curve" smooth="yes"/>
      <point x="1341" y="1137"/>
      <point x="1327" y="1155"/>
      <point x="1282" y="1155" type="curve" smooth="yes"/>
    </contour>
  </outline>
</glyph>
<glyph name="hbar" format="1">
  <advance width="1228"/>
  <unicode hex="0127"/>
  <outline>
    <contour>
      <point x="414" y="1312" type="line" smooth="yes"/>
      <point x="369" y="1312"/>
      <point x="348" y="1294"/>
      <point x="340" y="1249" type="curve" smooth="yes"/>
      <point x="131" y="63" type="line" smooth="yes"/>
      <point x="123" y="18"/>
      <point x="138" y="0"/>
      <point x="183" y="0" type="curve" smooth="yes"/>
      <point x="307" y="0" type="line" smooth="yes"/>
      <point x="352" y="0"/>
      <point x="373" y="18"/>
      <point x="381" y="63" type="curve" smooth="yes"/>
      <point x="424" y="308" type="line" smooth="yes"/>
      <point x="453" y="471"/>
      <point x="603" y="609"/>
      <point x="722" y="609" type="curve" smooth="yes"/>
      <point x="789" y="609"/>
      <point x="819" y="573"/>
      <point x="819" y="513" type="curve" smooth="yes"/>
      <point x="819" y="502"/>
      <point x="818" y="488"/>
      <point x="815" y="471" type="curve" smooth="yes"/>
      <point x="743" y="63" type="line" smooth="yes"/>
      <point x="735" y="18"/>
      <point x="750" y="0"/>
      <point x="795" y="0" type="curve" smooth="yes"/>
      <point x="919" y="0" type="line" smooth="yes"/>
      <point x="964" y="0"/>
      <point x="985" y="18"/>
      <point x="993" y="63" type="curve" smooth="yes"/>
      <point x="1070" y="497" type="line" smooth="yes"/>
      <point x="1075" y="526"/>
      <point x="1077" y="554"/>
      <point x="1077" y="577" type="curve" smooth="yes"/>
      <point x="1077" y="738"/>
      <point x="981" y="846"/>
      <point x="819" y="846" type="curve" smooth="yes"/>
      <point x="669" y="846"/>
      <point x="536" y="757"/>
      <point x="421" y="623" type="curve"/>
      <point x="475" y="596" type="line"/>
      <point x="590" y="1249" type="line" smooth="yes"/>
      <point x="598" y="1294"/>
      <point x="583" y="1312"/>
      <point x="538" y="1312" type="curve" smooth="yes"/>
    </contour>
    <contour>
      <point x="217" y="1155" type="line" smooth="yes"/>
      <point x="172" y="1155"/>
      <point x="150" y="1137"/>
      <point x="135" y="1052" type="curve" smooth="yes"/>
      <point x="121" y="967"/>
      <point x="136" y="950"/>
      <point x="181" y="950" type="curve" smooth="yes"/>
      <point x="743" y="950" type="line" smooth="yes"/>
      <point x="788" y="950"/>
      <point x="809" y="967"/>
      <point x="823" y="1052" type="curve" smooth="yes"/>
      <point x="838" y="1137"/>
      <point x="824" y="1155"/>
      <point x="779" y="1155" type="curve" smooth="yes"/>
    </contour>
  </outline>
</glyph>
<glyph name="dotlessi" format="1">
  <advance width="1228"/>
  <unicode hex="0131"/>
  <outline>
    <contour>
      <point x="342" y="924" type="line" smooth="yes"/>
      <point x="297" y="924"/>
      <point x="274" y="904"/>
      <point x="259" y="811" type="curve" smooth="yes"/>
      <point x="244" y="718"/>
      <point x="257" y="699"/>
      <point x="302" y="699" type="curve" smooth="yes"/>
      <point x="495" y="699" type="line"/>
      <point x="438" y="368" type="line" smooth="yes"/>
      <point x="432" y="334"/>
      <point x="429" y="302"/>
      <point x="429" y="272" type="curve" smooth="yes"/>
      <point x="429" y="86"/>
      <point x="541" y="-22"/>
      <point x="736" y="-22" type="curve" smooth="yes"/>
      <point x="836" y="-22"/>
      <point x="928" y="-3"/>
      <point x="1015" y="27" type="curve" smooth="yes"/>
      <point x="1075" y="48"/>
      <point x="1076" y="90"/>
      <point x="1062" y="153" type="curve" smooth="yes"/>
      <point x="1047" y="223"/>
      <point x="1026" y="257"/>
      <point x="970" y="242" type="curve" smooth="yes"/>
      <point x="901" y="224"/>
      <point x="839" y="215"/>
      <point x="780" y="215" type="curve" smooth="yes"/>
      <point x="717" y="215"/>
      <point x="683" y="246"/>
      <point x="683" y="318" type="curve" smooth="yes"/>
      <point x="683" y="334"/>
      <point x="685" y="352"/>
      <point x="688" y="371" type="curve" smooth="yes"/>
      <point x="774" y="861" type="line" smooth="yes"/>
      <point x="782" y="906"/>
      <point x="767" y="924"/>
      <point x="722" y="924" type="curve" smooth="yes"/>
    </contour>
  </outline>
</glyph>
<glyph name="lslash" format="1">
  <advance width="1228"/>
  <unicode hex="0142"/>
  <outline>
    <contour>
      <point x="206" y="578" type="line" smooth="yes"/>
      <point x="163" y="555"/>
      <point x="153" y="530"/>
      <point x="183" y="457" type="curve" smooth="yes"/>
      <point x="214" y="384"/>
      <point x="237" y="379"/>
      <point x="279" y="402" type="curve" smooth="yes"/>
      <point x="1004" y="791" type="line" smooth="yes"/>
      <point x="1046" y="814"/>
      <point x="1057" y="838"/>
      <point x="1027" y="911" type="curve" smooth="yes"/>
      <point x="996" y="984"/>
      <point x="973" y="990"/>
      <point x="930" y="967" type="curve" smooth="yes"/>
    </contour>
    <component base="l"/>
  </outline>
</glyph>
<glyph name="Eng" format="1">
  <advance width="1228"/>
  <unicode hex="014A"/>
  <outline>
    <contour>
      <point x="1054" y="1187" type="line" smooth="yes"/>
      <point x="1009" y="1187"/>
      <point x="988" y="1169"/>
      <point x="980" y="1124" type="curve" smooth="yes"/>
      <point x="865" y="477" type="line"/>
      <point x="861" y="477" type="line"/>
      <point x="526" y="1163" type="line" smooth="yes"/>
      <point x="517" y="1181"/>
      <point x="500" y="1187"/>
      <point x="476" y="1187" type="curve" smooth="yes"/>
      <point x="342" y="1187" type="line" smooth="yes"/>
      <point x="297" y="1187"/>
      <point x="276" y="1169"/>
      <point x="268" y="1124" type="curve" smooth="yes"/>
      <point x="81" y="63" type="line" smooth="yes"/>
      <point x="73" y="18"/>
      <point x="88" y="0"/>
      <point x="133" y="0" type="curve" smooth="yes"/>
      <point x="243" y="0" type="line" smooth="yes"/>
      <point x="288" y="0"/>
      <point x="309" y="18"/>
      <point x="317" y="63" type="curve" smooth="yes"/>
      <point x="441" y="766" type="line"/>
      <point x="445" y="766" type="line"/>
      <point x="782" y="79" type="line"/>
      <point x="761" y="-39" type="line" smooth="yes"/>
      <point x="744" y="-135"/>
      <point x="691" y="-173"/>
      <point x="608" y="-173" type="curve" smooth="yes"/>
      <point x="571" y="-173"/>
      <point x="517" y="-162"/>
      <point x="472" y="-147" type="curve" smooth="yes"/>
      <point x="433" y="-134"/>
      <point x="402" y="-153"/>
      <point x="371" y="-235" type="curve" smooth="yes"/>
      <point x="339" y="-319"/>
      <point x="350" y="-353"/>
      <point x="391" y="-370" type="curve" smooth="yes"/>
      <point x="455" y="-396"/>
      <point x="528" y="-410"/>
      <point x="593" y="-410" type="curve" smooth="yes"/>
      <point x="832" y="-410"/>
      <point x="966" y="-292"/>
      <point x="1008" y="-55" type="curve" smooth="yes"/>
      <point x="1216" y="1124" type="line" smooth="yes"/>
      <point x="1224" y="1169"/>
      <point x="1209" y="1187"/>
      <point x="1164" y="1187" type="curve" smooth="yes"/>
    </contour>
  </outline>
</glyph>
<glyph name="OE" format="1">
  <advance width="1228"/>
  <unicode hex="0152"/>
  <outline>
    <contour>
      <point x="727" y="1187" type="line"/>
      <point x="678" y="1124" type="line"/>
      <point x="491" y="63" type="line"/>
      <point x="550" y="0" type="line"/>
      <point x="1047" y="0" type="line" smooth="yes"/>
      <point x="1092" y="0"/>
      <point x="1113" y="22"/>
      <point x="1130" y="117" type="curve" smooth="yes"/>
      <point x="1147" y="212"/>
      <point x="1133" y="235"/>
      <point x="1088" y="235" type="curve" smooth="yes"/>
      <point x="771" y="235" type="line"/>
      <point x="817" y="494" type="line"/>
      <point x="1051" y="494" type="line" smooth="yes"/>
      <point x="1096" y="494"/>
      <point x="1117" y="516"/>
      <point x="1134" y="611" type="curve" smooth="yes"/>
      <point x="1151" y="706"/>
      <point x="1137" y="729"/>
      <point x="1092" y="729" type="curve" smooth="yes"/>
      <point x="858" y="729" type="line"/>
      <point x="897" y="952" type="line"/>
      <point x="1194" y="952" type="line" smooth="yes"/>
      <point x="1239" y="952"/>
      <point x="1261" y="974"/>
      <point x="1278" y="1069" type="curve" smooth="yes"/>
      <point x="1295" y="1164"/>
      <point x="1281" y="1187"/>
      <point x="1236" y="1187" type="curve" smooth="yes"/>
    </contour>
    <contour>
      <point x="515" y="1187"/>
      <point x="343" y="1104"/>
      <point x="228" y="946" type="curve" smooth="yes"/>
      <point x="131" y="812"/>
      <point x="81" y="629"/>
      <point x="81" y="476" type="curve" smooth="yes"/>
      <point x="81" y="185"/>
      <point x="263" y="0"/>
      <point x="550" y="0" type="curve"/>
      <point x="619" y="129" type="line"/>
      <point x="564" y="237" type="line"/>
      <point x="412" y="237"/>
      <point x="337" y="321"/>
      <point x="337" y="477" type="curve" smooth="yes"/>
      <point x="337" y="592"/>
      <point x="373" y="740"/>
      <point x="448" y="834" type="curve" smooth="yes"/>
      <point x="510" y="911"/>
      <point x="593" y="950"/>
      <point x="701" y="950" type="curve"/>
      <point x="759" y="1023" type="line"/>
      <point x="727" y="1187" type="line"/>
    </contour>
  </outline>
</glyph>
<glyph name="uogonek" format="1">
  <advance width="1228"/>
  <unicode hex="0173"/>
  <outline>
    <contour>
      <point x="963" y="924" type="line" smooth="yes"/>
      <point x="918" y="924"/>
      <point x="897" y="906"/>
      <point x="889" y="861" type="curve" smooth="yes"/>
      <point x="837" y="566" type="line" smooth="yes"/>
      <point x="804" y="378"/>
      <point x="639" y="215"/>
      <point x="510" y="215" type="curve" smooth="yes"/>
      <point x="430" y="215"/>
      <point x="396" y="256"/>
      <point x="396" y="324" type="curve" smooth="yes"/>
      <point x="396" y="339"/>
      <point x="398" y="355"/>
      <point x="401" y="373" type="curve" smooth="yes"/>
      <point x="487" y="861" type="line" smooth="yes"/>
      <point x="495" y="906"/>
      <point x="480" y="924"/>
      <point x="435" y="924" type="curve" smooth="yes"/>
      <point x="311" y="924" type="line" smooth="yes"/>
      <point x="266" y="924"/>
      <point x="245" y="906"/>
      <point x="237" y="861" type="curve" smooth="yes"/>
      <point x="145" y="334" type="line" smooth="yes"/>
      <point x="141" y="310"/>
      <point x="139" y="287"/>
      <point x="139" y="264" type="curve" smooth="yes"/>
      <point x="139" y="99"/>
      <point x="249" y="-22"/>
      <point x="424" y="-22" type="curve" smooth="yes"/>
      <point x="569" y="-22"/>
      <point x="698" y="61"/>
      <point x="800" y="188" type="curve"/>
      <point x="774" y="31" type="line"/>
      <point x="631" y="-52"/>
      <point x="521" y="-150"/>
      <point x="521" y="-284" type="curve" smooth="yes"/>
      <point x="521" y="-402"/>
      <point x="609" y="-472"/>
      <point x="748" y="-472" type="curve" smooth="yes"/>
      <point x="835" y="-472"/>
      <point x="918" y="-455"/>
      <point x="983" y="-433" type="curve" smooth="yes"/>
      <point x="1013" y="-423"/>
      <point x="1025" y="-393"/>
      <point x="1020" y="-340" type="curve" smooth="yes"/>
      <point x="1015" y="-284"/>
      <point x="997" y="-260"/>
      <point x="970" y="-265" type="curve" smooth="yes"/>
      <point x="930" y="-272"/>
      <point x="889" y="-278"/>
      <point x="850" y="-278" type="curve" smooth="yes"/>
      <point x="801" y="-278"/>
      <point x="772" y="-260"/>
      <point x="772" y="-215" type="curve" smooth="yes"/>
      <point x="772" y="-143"/>
      <point x="849" y="-74"/>
      <point x="973" y="12" type="curve" smooth="yes"/>
      <point x="987" y="22"/>
      <point x="995" y="39"/>
      <point x="999" y="63" type="curve" smooth="yes"/>
      <point x="1139" y="861" type="line" smooth="yes"/>
      <point x="1147" y="906"/>
      <point x="1132" y="924"/>
      <point x="1087" y="924" type="curve" smooth="yes"/>
    </contour>
  </outline>
</glyph>
<glyph name="ring" format="1">
  <advance width="1228"/>
  <unicode hex="02DA"/>
  <outline>
    <contour>
      <point x="633" y="1557"/>
      <point x="509" y="1433"/>
      <point x="509" y="1268" type="curve" smooth="yes"/>
      <point x="509" y="1130"/>
      <point x="608" y="1033"/>
      <point x="752" y="1033" type="curve" smooth="yes"/>
      <point x="911" y="1033"/>
      <point x="1035" y="1157"/>
      <point x="1035" y="1322" type="curve" smooth="yes"/>
      <point x="1035" y="1460"/>
      <point x="936" y="1557"/>
      <point x="792" y="1557" type="curve" smooth="yes"/>
    </contour>
    <contour>
      <point x="832" y="1387"/>
      <point x="865" y="1354"/>
      <point x="865" y="1307" type="curve" smooth="yes"/>
      <point x="865" y="1250"/>
      <point x="827" y="1203"/>
      <point x="764" y="1203" type="curve" smooth="yes"/>
      <point x="712" y="1203"/>
      <point x="679" y="1236"/>
      <point x="679" y="1283" type="curve" smooth="yes"/>
      <point x="679" y="1340"/>
      <point x="717" y="1387"/>
      <point x="780" y="1387" type="curve" smooth="yes"/>
    </contour>
  </outline>
</glyph>
<glyph name="ogonek" format="1">
  <advance width="1228"/>
  <unicode hex="02DB"/>
  <outline>
    <contour>
      <point x="482" y="28" type="line"/>
      <point x="343" y="-54"/>
      <point x="234" y="-151"/>
      <point x="234" y="-284" type="curve" smooth="yes"/>
      <point x="234" y="-402"/>
      <point x="322" y="-472"/>
      <point x="461" y="-472" type="curve" smooth="yes"/>
      <point x="548" y="-472"/>
      <point x="631" y="-455"/>
      <point x="696" y="-433" type="curve" smooth="yes"/>
      <point x="726" y="-423"/>
      <point x="738" y="-393"/>
      <point x="733" y="-340" type="curve" smooth="yes"/>
      <point x="728" y="-284"/>
      <point x="710" y="-260"/>
      <point x="683" y="-265" type="curve" smooth="yes"/>
      <point x="643" y="-272"/>
      <point x="602" y="-278"/>
      <point x="563" y="-278" type="curve" smooth="yes"/>
      <point x="514" y="-278"/>
      <point x="485" y="-260"/>
      <point x="485" y="-215" type="curve" smooth="yes"/>
      <point x="485" y="-139"/>
      <point x="572" y="-66"/>
      <point x="709" y="28" type="curve"/>
    </contour>
  </outline>
</glyph>
<glyph name="tilde" format="1">
  <advance width="1228"/>
  <unicode hex="02DC"/>
  <outline>
    <contour>
      <point x="543" y="1371"/>
      <point x="455" y="1310"/>
      <point x="388" y="1210" type="curve" smooth="yes"/>
      <point x="370" y="1183"/>
      <point x="374" y="1144"/>
      <point x="414" y="1100" type="curve" smooth="yes"/>
      <point x="452" y="1058"/>
      <point x="486" y="1049"/>
      <point x="510" y="1074" type="curve" smooth="yes"/>
      <point x="549" y="1115"/>
      <point x="593" y="1146"/>
      <point x="639" y="1146" type="curve" smooth="yes"/>
      <point x="717" y="1146"/>
      <point x="784" y="1065"/>
      <point x="894" y="1065" type="curve" smooth="yes"/>
      <point x="987" y="1065"/>
      <point x="1075" y="1126"/>
      <point x="1142" y="1226" type="curve" smooth="yes"/>
      <point x="1160" y="1253"/>
      <point x="1156" y="1292"/>
      <point x="1116" y="1336" type="curve" smooth="yes"/>
      <point x="1078" y="1378"/>
      <point x="1044" y="1387"/>
      <point x="1020" y="1362" type="curve" smooth="yes"/>
      <point x="981" y="1321"/>
      <point x="937" y="1290"/>
      <point x="891" y="1290" type="curve" smooth="yes"/>
      <point x="813" y="1290"/>
      <point x="746" y="1371"/>
      <point x="636" y="1371" type="curve" smooth="yes"/>
    </contour>
  </outline>
</glyph>
<glyph name="hungarumlaut" format="1">
  <advance width="1228"/>
  <unicode hex="02DD"/>
  <outline>
    <contour>
      <point x="718" y="1420"/>
      <point x="669" y="1414"/>
      <point x="647" y="1388" type="curve" smooth="yes"/>
      <point x="426" y="1122" type="line" smooth="yes"/>
      <point x="407" y="1099"/>
      <point x="423" y="1071"/>
      <point x="471" y="1053" type="curve" smooth="yes"/>
      <point x="524" y="1033"/>
      <point x="563" y="1034"/>
      <point x="585" y="1054" type="curve" smooth="yes"/>
      <point x="850" y="1294" type="line" smooth="yes"/>
      <point x="875" y="1317"/>
      <point x="871" y="1351"/>
      <point x="793" y="1386" type="curve" smooth="yes"/>
    </contour>
    <contour>
      <point x="1148" y="1420"/>
      <point x="1099" y="1414"/>
      <point x="1077" y="1388" type="curve" smooth="yes"/>
      <point x="856" y="1122" type="line" smooth="yes"/>
      <point x="837" y="1099"/>
      <point x="853" y="1071"/>
      <point x="901" y="1053" type="curve" smooth="yes"/>
      <point x="954" y="1033"/>
      <point x="993" y="1034"/>
      <point x="1015" y="1054" type="curve" smooth="yes"/>
      <point x="1280" y="1294" type="line" smooth="yes"/>
      <point x="1305" y="1317"/>
      <point x="1301" y="1351"/>
      <point x="1223" y="1386" type="curve" smooth="yes"/>
    </contour>
  </outline>
</glyph>
<glyph name="franc" format="1">
  <advance width="1228"/>
  <unicode hex="20A3"/>
  <outline>
    <contour>
      <point x="422" y="1187" type="line" smooth="yes"/>
      <point x="377" y="1187"/>
      <point x="356" y="1169"/>
      <point x="348" y="1124" type="curve" smooth="yes"/>
      <point x="161" y="63" type="line" smooth="yes"/>
      <point x="153" y="18"/>
      <point x="168" y="0"/>
      <point x="213" y="0" type="curve" smooth="yes"/>
      <point x="337" y="0" type="line" smooth="yes"/>
      <point x="382" y="0"/>
      <point x="403" y="18"/>
      <point x="411" y="63" type="curve" smooth="yes"/>
      <point x="567" y="952" type="line"/>
      <point x="1084" y="952" type="line" smooth="yes"/>
      <point x="1129" y="952"/>
      <point x="1151" y="974"/>
      <point x="1168" y="1069" type="curve" smooth="yes"/>
      <point x="1185" y="1164"/>
      <point x="1171" y="1187"/>
      <point x="1126" y="1187" type="curve" smooth="yes"/>
    </contour>
    <contour>
      <point x="80" y="384" type="line" smooth="yes"/>
      <point x="35" y="384"/>
      <point x="15" y="370"/>
      <point x="1" y="291" type="curve" smooth="yes"/>
      <point x="-13" y="213"/>
      <point x="3" y="199"/>
      <point x="48" y="199" type="curve" smooth="yes"/>
      <point x="690" y="199" type="line" smooth="yes"/>
      <point x="735" y="199"/>
      <point x="755" y="213"/>
      <point x="769" y="291" type="curve" smooth="yes"/>
      <point x="783" y="370"/>
      <point x="767" y="384"/>
      <point x="722" y="384" type="curve" smooth="yes"/>
    </contour>
    <contour>
      <point x="463" y="737" type="line"/>
      <point x="422" y="502" type="line"/>
      <point x="922" y="502" type="line" smooth="yes"/>
      <point x="967" y="502"/>
      <point x="989" y="524"/>
      <point x="1006" y="619" type="curve" smooth="yes"/>
      <point x="1022" y="714"/>
      <point x="1008" y="737"/>
      <point x="963" y="737" type="curve" smooth="yes"/>
    </contour>
  </outline>
</glyph>
<glyph name="caron.alt" format="1">
  <advance width="1228"/>
  <outline>
    <contour>
      <point x="500" y="1312" type="line" smooth="yes"/>
      <point x="477" y="1312"/>
      <point x="467" y="1309"/>
      <point x="459" y="1288" type="curve" smooth="yes"/>
      <point x="314" y="897" type="line" smooth="yes"/>
      <point x="297" y="845"/>
      <point x="323" y="817"/>
      <point x="386" y="817" type="curve" smooth="yes"/>
      <point x="432" y="817"/>
      <point x="460" y="823"/>
      <point x="486" y="865" type="curve" smooth="yes"/>
      <point x="727" y="1252" type="line" smooth="yes"/>
      <point x="743" y="1281"/>
      <point x="728" y="1312"/>
      <point x="701" y="1312" type="curve" smooth="yes"/>
    </contour>
  </outline>
</glyph>
